<?xml version="1.0" encoding="utf-8"?>
<!-- Generator: Adobe Illustrator 23.0.0, SVG Export Plug-In . SVG Version: 6.00 Build 0)  -->
<svg version="1.1" id="Layer_1" xmlns="http://www.w3.org/2000/svg" xmlns:xlink="http://www.w3.org/1999/xlink" x="0px" y="0px"
	 width="57.34px" height="13.17px" viewBox="0 0 57.34 13.17" style="enable-background:new 0 0 57.34 13.17;" xml:space="preserve"
	>
<style type="text/css">
	.st0{clip-path:url(#SVGID_2_);}
	.st1{clip-path:url(#SVGID_4_);fill:#786DFF;}
	.st2{clip-path:url(#SVGID_6_);}
	.st3{clip-path:url(#SVGID_8_);}
	.st4{clip-path:url(#SVGID_10_);}
	.st5{clip-path:url(#SVGID_12_);}
	.st6{clip-path:url(#SVGID_14_);}
	.st7{clip-path:url(#SVGID_16_);}
	.st8{clip-path:url(#SVGID_18_);}
	.st9{clip-path:url(#SVGID_20_);}
	.st10{clip-path:url(#SVGID_22_);}
	.st11{clip-path:url(#SVGID_24_);}
	.st12{clip-path:url(#SVGID_26_);}
	.st13{clip-path:url(#SVGID_28_);enable-background:new    ;}
	.st14{clip-path:url(#SVGID_30_);}
	.st15{clip-path:url(#SVGID_32_);}
	.st16{clip-path:url(#SVGID_34_);}
</style>
<g>
	<g>
		<g>
			<defs>
				<path id="SVGID_1_" d="M9.81,1.1L8.42,2.55c-0.1,0.1-0.24,0-0.24,0L6.4,0.66c-0.57-0.6-1.51-0.6-2.08,0l0,0
					c-0.57,0.6-0.57,1.57,0,2.17l2.96,3.08c0.57,0.6,1.51,0.6,2.08,0l2.48-2.58l0.43-0.46c0.3-0.31,0.78-0.31,1.08,0
					s0.29,0.79-0.01,1.1l-0.45,0.47l-4.5,4.69c-0.14,0.14-0.27,0-0.27,0l-4.89-5.1c-0.57-0.6-1.51-0.6-2.08,0s-0.57,1.57,0,2.17
					l6.1,6.36l-0.03-0.03c0.57,0.6,1.51,0.6,2.08,0l5.68-5.92l0.06-0.06c1.45-1.51,1.45-3.94,0.01-5.44C13.6-0.4,11.26-0.4,9.81,1.1
					"/>
			</defs>
			<clipPath id="SVGID_2_">
				<use xlink:href="#SVGID_1_"  style="overflow:visible;"/>
			</clipPath>
			<g class="st0">
				<g>
					<defs>
						<rect id="SVGID_3_" x="-264" y="-9" width="587.34" height="475.17"/>
					</defs>
					<clipPath id="SVGID_4_">
						<use xlink:href="#SVGID_3_"  style="overflow:visible;"/>
					</clipPath>
					<rect x="-1.33" y="-2.07" class="st1" width="19.49" height="17.08"/>
				</g>
			</g>
		</g>
	</g>
	<g>
		<g>
			<defs>
				<path id="SVGID_5_" d="M24.11,10.41h-3.26V4.94c0-0.12-0.1-0.23-0.22-0.23c-0.12,0-0.22,0.1-0.22,0.23v5.66
					c0,0.12,0.1,0.23,0.22,0.23h3.47c0.11,0,0.2-0.1,0.2-0.21C24.31,10.51,24.22,10.41,24.11,10.41"/>
			</defs>
			<clipPath id="SVGID_6_">
				<use xlink:href="#SVGID_5_"  style="overflow:visible;"/>
			</clipPath>
			<g class="st2">
				<g>
					<defs>
						<rect id="SVGID_7_" x="-264" y="-9" width="587.34" height="475.17"/>
					</defs>
					<clipPath id="SVGID_8_">
						<use xlink:href="#SVGID_7_"  style="overflow:visible;"/>
					</clipPath>
					<rect x="18.38" y="2.68" class="st3" width="7.97" height="10.19"/>
				</g>
			</g>
		</g>
	</g>
	<g>
		<g>
			<defs>
				<path id="SVGID_9_" d="M28.72,4.91c-0.06-0.13-0.14-0.22-0.29-0.22h-0.02c-0.15,0-0.23,0.09-0.29,0.22l-2.49,5.62
					c-0.02,0.05-0.03,0.1-0.03,0.14c0,0.1,0.09,0.19,0.2,0.19c0.1,0,0.17-0.06,0.21-0.16l0.68-1.57h3.44l0.68,1.56
					c0.04,0.1,0.12,0.17,0.22,0.17c0.12,0,0.21-0.1,0.21-0.21c0-0.04-0.01-0.09-0.03-0.14L28.72,4.91z M26.87,8.72l1.54-3.51
					l1.53,3.51H26.87z"/>
			</defs>
			<clipPath id="SVGID_10_">
				<use xlink:href="#SVGID_9_"  style="overflow:visible;"/>
			</clipPath>
			<g class="st4">
				<g>
					<defs>
						<rect id="SVGID_11_" x="-264" y="-9" width="587.34" height="475.17"/>
					</defs>
					<clipPath id="SVGID_12_">
						<use xlink:href="#SVGID_11_"  style="overflow:visible;"/>
					</clipPath>
					<rect x="23.55" y="2.65" class="st5" width="9.72" height="10.25"/>
				</g>
			</g>
		</g>
	</g>
	<g>
		<g>
			<defs>
				<path id="SVGID_13_" d="M36.51,4.72c-0.09,0-0.14,0.06-0.19,0.13L34.2,8.02l-2.12-3.17c-0.05-0.08-0.11-0.13-0.2-0.13
					c-0.12,0-0.23,0.1-0.23,0.23c0,0.04,0.02,0.1,0.04,0.14l2.27,3.34v2.21c0,0.12,0.1,0.23,0.22,0.23s0.22-0.1,0.22-0.23V8.42
					l2.26-3.31C36.7,5.06,36.73,5,36.73,4.94C36.73,4.82,36.62,4.72,36.51,4.72"/>
			</defs>
			<clipPath id="SVGID_14_">
				<use xlink:href="#SVGID_13_"  style="overflow:visible;"/>
			</clipPath>
			<g class="st6">
				<g>
					<defs>
						<rect id="SVGID_15_" x="-264" y="-9" width="587.34" height="475.17"/>
					</defs>
					<clipPath id="SVGID_16_">
						<use xlink:href="#SVGID_15_"  style="overflow:visible;"/>
					</clipPath>
					<rect x="29.62" y="2.68" class="st7" width="9.15" height="10.22"/>
				</g>
			</g>
		</g>
	</g>
	<g>
		<g>
			<defs>
				<path id="SVGID_17_" d="M42.15,7.65c0.42-0.24,0.77-0.62,0.77-1.31V6.32c0-0.42-0.13-0.75-0.4-1.03
					C42.19,4.94,41.66,4.75,41,4.75h-2.07c-0.36,0-0.64,0.3-0.64,0.67v4.74c0,0.37,0.28,0.67,0.64,0.67h2.13
					c1.32,0,2.18-0.56,2.18-1.67V9.14C43.25,8.33,42.83,7.92,42.15,7.65z M39.54,5.93h1.27c0.54,0,0.84,0.23,0.84,0.62v0.02
					c0,0.45-0.36,0.64-0.92,0.64h-1.18V5.93H39.54z M41.97,9c0,0.45-0.34,0.66-0.91,0.66h-1.52V8.32h1.48
					c0.66,0,0.95,0.25,0.95,0.66V9z"/>
			</defs>
			<clipPath id="SVGID_18_">
				<use xlink:href="#SVGID_17_"  style="overflow:visible;"/>
			</clipPath>
			<g class="st8">
				<g>
					<defs>
						<rect id="SVGID_19_" x="-264" y="-9" width="587.34" height="475.17"/>
					</defs>
					<clipPath id="SVGID_20_">
						<use xlink:href="#SVGID_19_"  style="overflow:visible;"/>
					</clipPath>
					<rect x="36.25" y="2.71" class="st9" width="9.04" height="10.15"/>
				</g>
			</g>
		</g>
	</g>
	<g>
		<g>
			<defs>
				<path id="SVGID_21_" d="M49.07,4.7c-0.36,0-0.64,0.3-0.64,0.67v2.86c0,0.96-0.47,1.46-1.26,1.46c-0.78,0-1.26-0.51-1.26-1.5
					V5.37c0-0.37-0.28-0.67-0.64-0.67S44.63,5,44.63,5.37v2.85c0,1.79,0.96,2.7,2.52,2.7c1.57,0,2.56-0.9,2.56-2.74V5.37
					C49.71,5,49.43,4.7,49.07,4.7"/>
			</defs>
			<clipPath id="SVGID_22_">
				<use xlink:href="#SVGID_21_"  style="overflow:visible;"/>
			</clipPath>
			<g class="st10">
				<g>
					<defs>
						<rect id="SVGID_23_" x="-264" y="-9" width="587.34" height="475.17"/>
					</defs>
					<clipPath id="SVGID_24_">
						<use xlink:href="#SVGID_23_"  style="overflow:visible;"/>
					</clipPath>
					<rect x="42.59" y="2.66" class="st11" width="9.16" height="10.3"/>
				</g>
			</g>
		</g>
	</g>
	<g>
		<g>
			<defs>
				<rect id="SVGID_25_" x="50.92" y="4.69" width="5.37" height="6.19"/>
			</defs>
			<clipPath id="SVGID_26_">
				<use xlink:href="#SVGID_25_"  style="overflow:visible;"/>
			</clipPath>
			<g class="st12">
				<g>
					<defs>
						<rect id="SVGID_27_" x="-264" y="-9" width="587.34" height="475.17"/>
					</defs>
					<clipPath id="SVGID_28_">
						<use xlink:href="#SVGID_27_"  style="overflow:visible;"/>
					</clipPath>
					<g class="st13">
						<g>
							<g>
								<defs>
									<rect id="SVGID_29_" x="50.88" y="4.46" width="5.71" height="6.53"/>
								</defs>
								<clipPath id="SVGID_30_">
									<use xlink:href="#SVGID_29_"  style="overflow:visible;"/>
								</clipPath>
								<g class="st14">
									<g>
										<defs>
											<path id="SVGID_31_" d="M55.67,4.69c-0.27,0-0.46,0.16-0.62,0.4l-1.44,2.14L52.19,5.1c-0.16-0.24-0.34-0.41-0.63-0.41
												c-0.36,0-0.64,0.29-0.64,0.64c0,0.19,0.07,0.35,0.16,0.48l1.88,2.66v1.73c0,0.37,0.28,0.67,0.64,0.67s0.64-0.3,0.64-0.67
												V8.46l1.88-2.65c0.08-0.12,0.17-0.29,0.17-0.47C56.29,4.98,56.06,4.69,55.67,4.69"/>
										</defs>
										<clipPath id="SVGID_32_">
											<use xlink:href="#SVGID_31_"  style="overflow:visible;"/>
										</clipPath>
										<g class="st15">
											<g>
												<defs>
													<rect id="SVGID_33_" x="50.88" y="4.46" width="5.71" height="6.53"/>
												</defs>
												<clipPath id="SVGID_34_">
													<use xlink:href="#SVGID_33_"  style="overflow:visible;"/>
												</clipPath>
												<rect x="48.88" y="2.65" class="st16" width="9.45" height="10.27"/>
											</g>
										</g>
									</g>
								</g>
							</g>
						</g>
					</g>
				</g>
			</g>
		</g>
	</g>
</g>
</svg>
