<svg xmlns="http://www.w3.org/2000/svg" width="38" height="24" aria-labelledby="pi-lku"><path d="M35 0H3C1.3 0 0 1.3 0 3v18c0 1.7 1.4 3 3 3h32c1.7 0 3-1.3 3-3V3c0-1.7-1.4-3-3-3z" fill-opacity=".07"/><path d="M35 1c1.1 0 2 .9 2 2v18c0 1.1-.9 2-2 2H3c-1.1 0-2-.9-2-2V3c0-1.1.9-2 2-2h32" fill="#fff"/><clipPath id="a"><path d="M35 1c1.1 0 2 .9 2 2v18c0 1.1-.9 2-2 2H3c-1.1 0-2-.9-2-2V3c0-1.1.9-2 2-2h32"/></clipPath><g clip-path="url(#a)"><path d="M19.027 14.207a.162.162 0 01-.162-.16V9.89a.162.162 0 01.162-.16h.625a.16.16 0 01.161.16v3.371a.162.162 0 00.162.161h1.49a.162.162 0 01.162.162v.461a.162.162 0 01-.161.161h-2.44zm6.813-.137c.047.076.013.137-.076.137h-.753a.323.323 0 01-.247-.137l-1.001-1.612a.15.15 0 00-.217-.043l-.138.105a.337.337 0 00-.131.25v1.276a.162.162 0 01-.161.161h-.626a.162.162 0 01-.161-.16V9.89a.16.16 0 01.161-.16h.626c.088 0 .161.072.161.16v1.726c0 .09.042.103.093.03l.187-.263a7.26 7.26 0 01.194-.258l1.01-1.27a.38.38 0 01.262-.126h.73c.088 0 .116.057.06.127l-1.36 1.728a.246.246 0 00-.013.263l1.4 2.223zm4.177-4.34a.162.162 0 01.162.161v2.575c0 .089-.009.233-.02.322 0 0-.054.46-.202.709-.148.25-.361.44-.64.573a2.29 2.29 0 01-.992.199c-.575 0-1.021-.148-1.34-.443-.317-.295-.476-.699-.476-1.211V9.89a.16.16 0 01.161-.16h.622a.16.16 0 01.161.16v2.419c0 .089.009.233.02.322 0 0 .05.437.189.599.138.16.368.241.688.241.31 0 .535-.08.674-.243.14-.162.21-.417.21-.764V9.891a.16.16 0 01.161-.16h.622z" fill="#5f5f5d"/><path d="M8.236 9.246c-.108.059-.109.156-.002.216l1.699.951a.45.45 0 00.39.003l4.02-2.181c.107-.059.107-.155 0-.215l-1.713-.95a.458.458 0 00-.391 0L8.236 9.245zm-.212 3.05c-.108-.06-.196-.008-.197.115l-.008 1.863c0 .122.086.272.194.331l1.705.947c.108.06.283.06.391.002l1.72-.935c.108-.058.109-.155.002-.214l-3.807-2.11zm6.48.658a.452.452 0 00.39 0l1.91-1.037a.417.417 0 00.198-.33l.008-1.662c0-.122-.087-.175-.196-.117l-3.837 2.09c-.107.059-.107.155 0 .215l1.527.84zm-2.293-1.267a.45.45 0 00.39.001l4.016-2.19c.108-.057.109-.153.001-.213l-1.512-.839a.451.451 0 00-.39-.001L10.7 10.628c-.108.058-.108.155-.001.215l1.512.844zm1.911 1.688c.108-.058.108-.155 0-.214L8.035 9.768c-.106-.06-.194-.01-.195.113l-.008 1.668c0 .122.087.271.194.33l4.185 2.32c.107.06.282.06.39.002l1.522-.826zm-3.635 2.39c-.108.059-.108.155 0 .214l1.71.95c.107.059.283.06.39 0l4.231-2.304a.412.412 0 00.194-.329L17 12.45c0-.123-.09-.175-.197-.116l-6.316 3.43z" fill="#9ac328"/></g></svg>