<svg viewBox="0 0 68 78" fill="none" xmlns="http://www.w3.org/2000/svg"><ellipse cx="34" cy="64" rx="18" ry="4" fill="url(#paint0_radial_1115_658)" fill-opacity=".2"/><g filter="url(#filter0_d_1115_658)"><path d="M50.858 42.766A19.907 19.907 0 0054 32c0-11.046-8.954-20-20-20s-20 8.954-20 20c0 3.963 1.153 7.658 3.142 10.766C20.592 49.26 26.63 54.63 34 62c7.37-7.37 13.409-12.74 16.858-19.234z" fill="#BA264A"/></g><g filter="url(#filter1_d_1115_658)"><path fill-rule="evenodd" clip-rule="evenodd" d="M33.973 61.973a635.804 635.804 0 00-3.359-3.326c-5.826-5.74-10.567-10.412-13.472-15.881A19.907 19.907 0 0114 32c0-11.046 8.954-20 20-20s20 8.954 20 20c0 3.963-1.153 7.658-3.142 10.766-2.905 5.469-7.646 10.14-13.472 15.88a635.804 635.804 0 00-3.36 3.327c-.008.01-.017.018-.026.027l-.027-.027zm18.614-18.198A21.907 21.907 0 0056 32c0-12.15-9.85-22-22-22s-22 9.85-22 22c0 4.327 1.252 8.37 3.413 11.775 3.066 5.734 8.054 10.644 13.85 16.35 1.081 1.065 2.192 2.158 3.323 3.29a2 2 0 002.828 0c1.131-1.132 2.242-2.225 3.324-3.29 5.795-5.706 10.784-10.616 13.849-16.35z" fill="#fff"/></g><path fill-rule="evenodd" clip-rule="evenodd" d="M49.975 42.297a.995.995 0 01.04-.07A18.907 18.907 0 0053 32c0-10.494-8.507-19-19-19-10.494 0-19 8.506-19 19 0 3.767 1.095 7.275 2.984 10.227a.995.995 0 01.041.07c2.827 5.321 7.437 9.866 13.265 15.61.877.865 1.78 1.756 2.71 2.68.93-.924 1.833-1.815 2.71-2.68 5.828-5.744 10.438-10.289 13.265-15.61zM34.027 61.973L34 62l-.027-.027a635.804 635.804 0 00-3.359-3.326c-5.826-5.74-10.567-10.412-13.472-15.881A19.907 19.907 0 0114 32c0-11.046 8.954-20 20-20s20 8.954 20 20c0 3.963-1.153 7.658-3.142 10.766-2.905 5.469-7.646 10.14-13.472 15.88a635.804 635.804 0 00-3.36 3.327z" fill="#000" fill-opacity=".3"/><path fill-rule="evenodd" clip-rule="evenodd" d="M42.002 32.003a8 8 0 11-16 0 8 8 0 0116 0zm-8 7a7 7 0 100-14 7 7 0 000 14z" fill="#000" fill-opacity=".3"/><path d="M41.002 32.003a7 7 0 11-14 0 7 7 0 0114 0z" fill="#EFEDEA"/><path fill-rule="evenodd" clip-rule="evenodd" d="M34.002 37.003a5 5 0 100-10 5 5 0 000 10zm0 2a7 7 0 100-14 7 7 0 000 14z" fill="#fff"/><defs><filter id="filter0_d_1115_658" x="12" y="12" width="44" height="54" filterUnits="userSpaceOnUse" color-interpolation-filters="sRGB"><feFlood flood-opacity="0" result="BackgroundImageFix"/><feColorMatrix in="SourceAlpha" values="0 0 0 0 0 0 0 0 0 0 0 0 0 0 0 0 0 0 127 0" result="hardAlpha"/><feOffset dy="2"/><feGaussianBlur stdDeviation="1"/><feColorMatrix values="0 0 0 0 0 0 0 0 0 0 0 0 0 0 0 0 0 0 0.16 0"/><feBlend in2="BackgroundImageFix" result="effect1_dropShadow_1115_658"/><feBlend in="SourceGraphic" in2="effect1_dropShadow_1115_658" result="shape"/></filter><filter id="filter1_d_1115_658" x="0" y="0" width="68" height="78" filterUnits="userSpaceOnUse" color-interpolation-filters="sRGB"><feFlood flood-opacity="0" result="BackgroundImageFix"/><feColorMatrix in="SourceAlpha" values="0 0 0 0 0 0 0 0 0 0 0 0 0 0 0 0 0 0 127 0" result="hardAlpha"/><feOffset dy="2"/><feGaussianBlur stdDeviation="6"/><feColorMatrix values="0 0 0 0 0 0 0 0 0 0 0 0 0 0 0 0 0 0 0.16 0"/><feBlend in2="BackgroundImageFix" result="effect1_dropShadow_1115_658"/><feBlend in="SourceGraphic" in2="effect1_dropShadow_1115_658" result="shape"/></filter><radialGradient id="paint0_radial_1115_658" cx="0" cy="0" r="1" gradientUnits="userSpaceOnUse" gradientTransform="matrix(0 4 -18 0 34 64)"><stop offset=".274"/><stop offset="1" stop-opacity="0"/></radialGradient></defs></svg>