<svg xmlns="http://www.w3.org/2000/svg" width="38" height="24" aria-labelledby="pi-creditclickpaynlversion"><path vector-effect="non-scaling-stroke" d="M6.174 15.528V8.472h27.79v7.056z" fill="#30a4c0"/><path vector-effect="non-scaling-stroke" d="M15.506 7.149h1a.72.72 0 00.104.038c.408.107.82.195 1.22.321a4.904 4.904 0 01.655.315.84.84 0 01-.058.09c-.443.445-.884.89-1.336 1.325a.258.258 0 01-.21.032 3.051 3.051 0 00-1.306-.097 2.862 2.862 0 102.73 4.534.321.321 0 00.042-.252 4.893 4.893 0 01-.187-2.024 4.83 4.83 0 013.47-4.089c.274-.078.554-.128.84-.193h1.037c.184.04.371.078.556.12a4.654 4.654 0 011.33.518.298.298 0 01-.036.063c-.458.458-.914.916-1.376 1.367a.229.229 0 01-.18.038c-.196-.03-.387-.092-.582-.107a2.843 2.843 0 00-3.066 3.274 2.694 2.694 0 002.056 2.327c1.159.327 2.154 0 2.959-.901.113-.124.21-.267.315-.42.447.464.899.903 1.346 1.344.084.084.038.14-.017.21a4.855 4.855 0 01-6.678.945c-.225-.166-.42-.353-.649-.534l-.088.084a4.864 4.864 0 01-8.075-2.196c-.094-.347-.132-.71-.197-1.067v-.46c.025-.162.048-.325.078-.49.34-1.89 1.405-3.166 3.194-3.838a9.834 9.834 0 011.109-.277z" fill="#fff"/><path vector-effect="non-scaling-stroke" d="M35 0H3C1.3 0 0 1.3 0 3v18c0 1.7 1.4 3 3 3h32c1.7 0 3-1.3 3-3V3c0-1.7-1.4-3-3-3z" opacity=".07"/><path vector-effect="non-scaling-stroke" d="M35 1c1.1 0 2 .9 2 2v18c0 1.1-.9 2-2 2H3c-1.1 0-2-.9-2-2V3c0-1.1.9-2 2-2h32" fill="#30a4c0"/><path vector-effect="non-scaling-stroke" d="M37.005 4.771v16.213c0 1.1-.963 2.045-2.063 2.045 0 0-16.24-.003-16.367-.045" fill="#df8a4a"/><path vector-effect="non-scaling-stroke" d="M36.934 21.005v.212c0 1.1-.868 1.778-1.968 1.778" fill="#db8016"/><path vector-effect="non-scaling-stroke" d="M23.497 1.024C23.532 1 1.833 22.631 1.924 22.676c-.133 0-.92-.552-.92-1.652v-18c0-1.1.9-2 2-2z" fill="#009dc8"/><path vector-effect="non-scaling-stroke" d="M6.158 1.025C6.194 1.001.981 6.72 1.001 6.654V3.025c0-1.1.9-2 2-2 0 0 2.12-.043 3.157 0z" fill="#0097cc"/><path vector-effect="non-scaling-stroke" d="M15.34 6.918h1.046c.036.016.073.03.11.04.427.112.858.204 1.279.336a5.137 5.137 0 01.686.33.88.88 0 01-.062.095c-.464.466-.926.932-1.399 1.388a.27.27 0 01-.22.033 3.197 3.197 0 00-1.368-.101 2.999 2.999 0 102.86 4.75.336.336 0 00.044-.265 5.126 5.126 0 01-.196-2.12 5.06 5.06 0 013.634-4.284c.289-.081.581-.134.88-.202h1.087c.194.042.39.081.583.125a4.875 4.875 0 011.393.544.312.312 0 01-.038.066c-.48.48-.957.959-1.44 1.432a.24.24 0 01-.19.04c-.204-.031-.405-.097-.61-.113a2.979 2.979 0 00-3.211 3.43 2.823 2.823 0 002.154 2.438c1.214.343 2.257 0 3.1-.944.118-.13.22-.28.33-.44.468.486.941.946 1.41 1.408.088.088.04.147-.018.22a5.086 5.086 0 01-6.996.99c-.235-.174-.44-.37-.68-.559l-.092.088a5.095 5.095 0 01-8.46-2.301c-.098-.363-.138-.744-.206-1.118v-.482c.026-.169.05-.34.081-.512.357-1.98 1.472-3.318 3.347-4.022a10.303 10.303 0 011.161-.29z" fill="#fff"/></svg>