<svg viewBox="0 0 80 24" fill="none" xmlns="http://www.w3.org/2000/svg"><path d="M11.925 10.926a.303.303 0 01-.287-.005l-.464-.276a.32.32 0 01-.1-.106c-.001-.004-.003-.006-.005-.009a.302.302 0 01-.049-.146l-.011-.543a.303.303 0 01.138-.249L16.73 6.34 8.897 2.071A.67.67 0 008.584 2a.678.678 0 00-.315.07L.433 6.34l8.776 5.11a.3.3 0 01.143.245v7.454c0 .095-.068.2-.148.244l-.472.263a.313.313 0 01-.141.032h-.009a.3.3 0 01-.15-.032l-.473-.262a.301.301 0 01-.146-.245v-6.646a.188.188 0 00-.08-.13L0 7.874v8.816c0 .197.14.442.31.54l7.964 4.697a.62.62 0 00.31.074.62.62 0 00.31-.074l7.964-4.698a.697.697 0 00.308-.54V7.873l-5.241 3.053z" fill="url(#paint0_linear_1078_480)"/><path d="M28.382 10.039c-.613-.37-1.226-.532-2.05-.532-2.191 0-3.79 1.5-3.79 3.773 0 2.258 1.486 3.742 3.808 3.742.74 0 1.451-.145 2.096-.532v-1.822c-.549.419-1.145.645-1.822.645-1.306 0-2.13-.839-2.13-2.065 0-1.29.856-2.03 2.05-2.03.661 0 1.242.176 1.838.66v-1.84zm11.852 5.171h-.008c-.707-.06-1.072-.47-1.072-1.206V6.4h-1.932v7.733c0 2.109 1.18 2.8 3.012 2.81v-1.734zm-7.521-5.703c-2.145 0-3.758 1.515-3.758 3.758 0 2.241 1.613 3.758 3.758 3.758s3.773-1.517 3.773-3.758c0-2.243-1.628-3.758-3.773-3.758zm0 5.84c-1.05 0-1.807-.792-1.807-2.082 0-1.29.758-2.08 1.807-2.08s1.806.79 1.806 2.08-.759 2.081-1.806 2.081zm11.556 1.013c.58.371 1.466.582 2.337.582 1.677 0 2.855-.71 2.855-2.275 0-1.29-.63-2-2.483-2.339-.679-.162-.935-.353-.935-.726 0-.338.275-.613.92-.613.74 0 1.37.243 2.047.694V9.957c-.628-.355-1.258-.532-2.113-.532-1.547 0-2.741.726-2.741 2.307 0 1.307.677 1.952 2.305 2.243.791.162 1.098.338 1.098.774 0 .452-.403.628-1 .628-.711 0-1.613-.306-2.29-.806v1.79zm-3.139.5h1.941V9.65h-1.94v7.212zm.972-10.087a.97.97 0 100 1.94.97.97 0 000-1.94zm32.385 2.734c-2.145 0-3.757 1.515-3.757 3.758 0 2.241 1.612 3.758 3.757 3.758s3.774-1.517 3.774-3.758c0-2.243-1.63-3.758-3.774-3.758zm0 5.84c-1.048 0-1.806-.792-1.806-2.082 0-1.29.758-2.08 1.806-2.08 1.05 0 1.807.79 1.807 2.08-.002 1.29-.76 2.081-1.807 2.081zM50.111 16.36c.581.371 1.467.582 2.337.582 1.68 0 2.856-.71 2.856-2.275 0-1.29-.63-2-2.484-2.339-.678-.162-.936-.353-.936-.726 0-.338.275-.613.92-.613.74 0 1.37.243 2.047.694V9.957c-.628-.355-1.258-.532-2.113-.532-1.548 0-2.741.726-2.741 2.307 0 1.307.676 1.952 2.305 2.243.791.162 1.098.338 1.098.774 0 .452-.403.628-1 .628-.711 0-1.614-.306-2.29-.806l.001 1.79zm6.025.5h1.94V9.65h-1.94v7.212zm.97-10.087a.97.97 0 100 1.94.97.97 0 000-1.94zm10.879 5.591c0-.758-.339-1.145-1.096-1.145-.516 0-1.033.113-1.354.274.064.162.145.403.145.741v4.627h-1.95v-4.497c0-.758-.355-1.145-1.096-1.145-.468 0-.822.064-1.21.177v5.465H59.49V10.14c.998-.388 2.175-.628 3.24-.628.838 0 1.547.209 1.981.564.645-.29 1.386-.564 2.433-.564 1.71 0 2.789.66 2.789 2.771v4.579h-1.95l.002-4.498z" fill="#3C3C3B"/><defs><linearGradient id="paint0_linear_1078_480" x1=".199" y1="17.028" x2="16.716" y2="6.775" gradientUnits="userSpaceOnUse"><stop stop-color="#EC6608"/><stop offset=".168" stop-color="#ED6C07"/><stop offset=".388" stop-color="#EF7A07"/><stop offset=".636" stop-color="#F39107"/><stop offset=".903" stop-color="#F9AF06"/><stop offset="1" stop-color="#FBBA07"/></linearGradient></defs></svg>