<svg width="38" height="24" aria-labelledby="pi-farmlands" xmlns="http://www.w3.org/2000/svg"><path d="M35 0H3a3 3 0 00-3 3v18a3 3 0 003 3h32a3 3 0 003-3V3a3 3 0 00-3-3z" opacity=".07" style="isolation:isolate"/><path d="M35 1a2 2 0 012 2v18a2 2 0 01-2 2H3a2 2 0 01-2-2V3a2 2 0 012-2h32" fill="#fff"/><path d="M2.405 20.085a1.14 1.14 0 01-.438-.082.894.894 0 01-.342-.25 1.168 1.168 0 01-.222-.42 2.012 2.012 0 01-.08-.596c0-.227.028-.423.083-.589.054-.164.127-.304.219-.416a.914.914 0 01.34-.26 1.07 1.07 0 01.44-.092c.127 0 .25.02.368.06a1.9 1.9 0 01.317.138v.489h-.023a1.472 1.472 0 00-.266-.195.947.947 0 00-.19-.08.689.689 0 00-.213-.035c-.202 0-.364.086-.486.257s-.184.412-.184.724c0 .305.059.543.177.714.118.17.282.256.493.256.127 0 .248-.03.363-.088a1.15 1.15 0 00.305-.227h.023v.489l-.146.073c-.058.028-.11.05-.157.064a1.9 1.9 0 01-.179.05c-.051.01-.119.016-.202.016zm2.947-1.35c0 .435-.094.772-.283 1.008a.911.911 0 01-.751.356.902.902 0 01-.76-.367c-.185-.245-.278-.577-.278-.997 0-.433.095-.768.286-1.008.19-.24.44-.36.752-.36a.91.91 0 01.751.358c.189.24.283.576.283 1.01zm-.403 0c0-.335-.055-.584-.164-.747a.529.529 0 00-.467-.244.535.535 0 00-.47.244c-.11.163-.165.412-.165.747 0 .324.055.57.165.737a.53.53 0 00.47.252.53.53 0 00.466-.247c.11-.165.165-.412.165-.742zm1.878-.007h-1.17v-.42h1.17zm2.376.007c0 .435-.094.77-.281 1.008a.911.911 0 01-.752.356.902.902 0 01-.76-.367c-.185-.245-.277-.577-.277-.997 0-.433.095-.768.285-1.008.19-.24.441-.36.752-.36a.91.91 0 01.752.358c.187.24.281.576.281 1.01zm-.402 0c0-.335-.055-.584-.163-.747a.529.529 0 00-.468-.244.535.535 0 00-.47.244c-.11.163-.165.412-.165.747 0 .324.055.57.165.737a.53.53 0 00.47.252.53.53 0 00.466-.247c.11-.165.165-.412.165-.742zm2.747-.07c0 .431-.093.774-.277 1.03-.185.256-.419.383-.7.383a.97.97 0 01-.578-.18v1.084h-.39v-3.54h.39v.27a1.42 1.42 0 01.323-.245.785.785 0 01.387-.098.7.7 0 01.622.352c.15.234.223.55.223.945zm-.403.048c0-.295-.042-.523-.126-.686a.43.43 0 00-.41-.244.673.673 0 00-.321.082 1.37 1.37 0 00-.294.212v1.466c.102.055.19.093.262.113s.156.03.25.03a.537.537 0 00.471-.248c.113-.164.168-.406.168-.725zm1.814 1.374c-.369 0-.655-.116-.86-.348-.204-.232-.305-.563-.305-.99 0-.422.098-.757.297-1.006a.943.943 0 01.776-.374c.144 0 .271.022.382.069.11.046.208.12.29.218a.993.993 0 01.191.362c.045.143.067.318.067.525v.236H12.19c0 .301.068.53.203.69.136.16.324.239.562.239a1.026 1.026 0 00.476-.116 1.208 1.208 0 00.3-.197h.022v.476l-.17.075a1.722 1.722 0 01-.39.123 1.31 1.31 0 01-.235.018zm.457-1.642a1.326 1.326 0 00-.038-.303.653.653 0 00-.095-.216.435.486 0 00-.176-.148.62.62 0 00-.264-.051.611.611 0 00-.265.052.643.643 0 00-.198.152.729.729 0 00-.133.226c-.03.082-.05.178-.058.288zm2.002-.537h-.02a.45.503 0 00-.093-.018 1.573 1.573 0 00-.117-.003.7.7 0 00-.314.076.987.987 0 00-.294.227v1.837h-.39V17.44h.39v.385c.142-.14.266-.24.372-.298a.639.639 0 01.399-.083c.02.002.042.005.067.01v.454zm1.526 1.843a4.43 4.43 0 00-.128.11 1.038 1.038 0 01-.355.204.877.877 0 01-.27.034.645.645 0 01-.273-.06.701.783 0 01-.226-.17.79.79 0 01-.15-.262.963.963 0 01-.055-.33c0-.18.034-.331.102-.458a.717.717 0 01.322-.3 1.49 1.49 0 01.46-.138c.177-.025.368-.044.573-.057v-.083a.624.624 0 00-.042-.247.334.334 0 00-.116-.144c-.05-.036-.11-.06-.182-.07s-.146-.019-.222-.019c-.09 0-.196.016-.317.046-.122.03-.243.074-.366.13h-.022v-.442a3.02 3.02 0 01.309-.077 1.963 1.963 0 01.8 0c.11.028.208.079.296.15a.646.646 0 01.189.277c.041.112.062.25.062.412v1.77h-.388v-.276zm0-.361v-.719c-.093.01-.21.022-.352.04a1.707 1.707 0 00-.344.067.614.614 0 00-.258.163.435.435 0 00-.101.307c0 .148.037.26.112.336.075.076.184.113.328.113a.635.635 0 00.334-.089c.1-.059.193-.132.28-.218zm1.637.688c-.214 0-.38-.068-.499-.203s-.178-.35-.178-.64V17.8h-.264v-.362h.264v-.743h.39v.743h.718v.362h-.718v1.23c0 .13.002.232.006.303.005.07.02.137.048.2a.243.243 0 00.113.121c.053.027.124.04.214.04.064 0 .126-.01.185-.031.06-.021.103-.038.129-.052h.023v.39a1.702 1.702 0 01-.223.055 1.13 1.13 0 01-.208.02zm1.145-3.07h-.444v-.453h.444zm-.026 3.02h-.39V17.44h.39zm2.394-2.588l-.874 2.587h-.35l-.868-2.587h.421l.635 1.996.629-1.996zm1.268 2.647c-.37 0-.656-.116-.86-.348-.204-.232-.306-.563-.306-.99 0-.422.099-.757.297-1.006a.942.942 0 01.776-.374c.144 0 .272.022.382.069.111.046.208.12.29.218a.993.993 0 01.191.362c.045.143.067.318.067.525v.236h-1.606c0 .301.068.53.203.69.136.16.323.239.562.239a1.026 1.026 0 00.476-.116c.07-.035.13-.07.178-.102.049-.034.09-.065.121-.094h.023v.475l-.17.075a1.668 1.668 0 01-.39.123c-.062.012-.14.018-.234.018zm.457-1.642a1.326 1.326 0 00-.038-.303.653.653 0 00-.096-.216.442.442 0 00-.174-.148.62.62 0 00-.265-.051.611.611 0 00-.264.052.643.643 0 00-.199.152.729.729 0 00-.132.226c-.03.082-.05.178-.058.288zm-19.066-8.03H2.62v1.144h1.965v1.112H2.621v2.567H1.352V9.304h3.4v1.111m2.605 3.646v-.933c-.199.021-.36.043-.486.058-.124.02-.246.053-.365.105a.52.52 0 00-.242.191.617.617 0 00-.086.347c0 .212.047.356.143.434.097.079.239.118.426.118.101 0 .21-.028.318-.085a.915.915 0 00.292-.235m0 .701c-.079.081-.153.151-.215.217a1.46 1.46 0 01-.57.327c-.1.028-.238.045-.42.045-.336 0-.613-.133-.835-.398-.221-.266-.333-.602-.333-1.007 0-.334.056-.602.17-.807.111-.205.273-.365.485-.488a2.28 2.28 0 01.766-.255c.299-.048.616-.085.96-.111v-.025c0-.248-.077-.423-.232-.517-.153-.097-.385-.144-.691-.144-.14 0-.303.03-.49.092a3.32 3.32 0 00-.547.238h-.101v-1.076c.118-.04.31-.085.57-.142.264-.055.528-.081.797-.081.655 0 1.132.128 1.432.386.298.255.45.647.45 1.176v3.046H7.356zm4.567-2.663h-.1a.733.733 0 00-.195-.044 2.66 2.66 0 00-.282-.012c-.122 0-.255.019-.388.06a4.02 4.486 0 00-.397.153v2.982H9.37v-4.48h1.193v.657c.053-.059.13-.133.224-.222a2.62 2.62 0 01.26-.213c.087-.06.185-.111.3-.155a.892.892 0 01.322-.066c.037 0 .08.003.126.005.048.002.09.007.13.011V12.1m4.952 3.14v-2.235c0-.222-.002-.408-.01-.558a1.395 1.395 0 00-.06-.373.379.379 0 00-.16-.207.584.584 0 00-.301-.066.583.583 0 00-.27.068 2.031 2.031 0 00-.29.198v3.172h-1.192v-2.234c0-.218-.006-.404-.013-.556a1.46 1.46 0 00-.063-.375.378.378 0 00-.158-.207.58.58 0 00-.299-.066.578.578 0 00-.287.079 1.838 1.838 0 00-.271.187v3.172h-1.194v-4.48h1.194v.504a3.12 3.12 0 01.55-.453c.173-.11.367-.164.583-.164.231 0 .438.063.615.193s.31.326.404.582a3.71 3.71 0 01.645-.577 1.121 1.121 0 011.095-.101.959.959 0 01.356.298 1.5 1.5 0 01.24.512c.055.196.08.456.08.774v2.91h-1.194m2.02-6.204h1.194v6.206h-1.194zm4.125 5.03v-.934c-.202.021-.363.043-.489.058-.124.02-.244.053-.363.105a.514.514 0 00-.245.192.64.64 0 00-.084.347c0 .212.049.356.143.434.096.079.238.118.425.118.104 0 .21-.028.318-.085a.981.981 0 00.295-.236m0 .701c-.08.081-.153.151-.217.217a1.422 1.422 0 01-.26.191 1.61 1.61 0 01-.31.136 1.579 1.579 0 01-.419.045c-.335 0-.614-.133-.835-.398-.22-.266-.332-.602-.332-1.007 0-.334.055-.602.168-.807.113-.205.276-.365.487-.488.212-.122.47-.207.764-.255.298-.048.62-.085.963-.111v-.025c0-.248-.08-.423-.234-.517-.151-.097-.384-.144-.69-.144-.142 0-.304.03-.49.092a3.2 3.2 0 00-.549.238h-.1v-1.076a6.03 6.03 0 01.571-.142c.261-.055.526-.081.794-.081.656 0 1.134.128 1.432.386.3.255.45.647.45 1.176v3.046H23.02v-.476zm5.59.476H27.42V13.02c0-.18-.008-.362-.018-.54a1.37 1.37 0 00-.073-.397.4.4 0 00-.176-.215.632.632 0 00-.311-.066.741.741 0 00-.297.063c-.1.042-.207.109-.32.203v3.172H25.03v-4.48h1.195v.504a2.84 2.84 0 01.57-.453 1.18 1.18 0 01.612-.164c.393 0 .69.144.895.429.208.29.31.706.31 1.254v2.91m3.081-1.212v-2.22a.801.801 0 00-.229-.087 1.012 1.012 0 00-.246-.035.708.708 0 00-.643.355c-.143.236-.215.566-.215.99 0 .447.058.77.171.968.114.2.299.299.555.299a.74.74 0 00.315-.074 1.04 1.04 0 00.292-.196m1.195 1.211h-1.195v-.466a6.035 6.035 0 01-.263.24 1.474 1.474 0 01-.26.19c-.095.056-.19.102-.281.132-.095.03-.205.046-.334.046-.437 0-.78-.211-1.034-.635-.254-.425-.382-.992-.382-1.698 0-.393.044-.733.13-1.02a2.57 2.57 0 01.357-.752 1.63 1.63 0 01.504-.463 1.23 1.23 0 01.626-.167c.198 0 .364.024.491.074.127.048.276.124.446.227V9.032h1.194v6.206zm2.006.114c-.279 0-.543-.034-.792-.107a2.764 2.764 0 01-.622-.253V13.81h.1a1.783 1.783 0 00.491.354c.11.059.235.11.373.152.138.044.287.065.45.065.164 0 .311-.028.438-.087.126-.059.192-.151.192-.277a.306.306 0 00-.089-.233c-.06-.055-.173-.106-.342-.153a4.354 4.354 0 00-.341-.085 3.151 3.151 0 01-.364-.105c-.298-.108-.521-.27-.67-.483-.15-.214-.223-.493-.223-.839a1.13 1.261 0 01.116-.562 1.38 1.38 0 01.345-.471c.152-.136.338-.243.562-.323.221-.08.473-.118.753-.118.267 0 .514.031.737.092.224.064.413.14.566.227V12.1h-.094a2.082 2.082 0 00-.193-.146 2.22 2.22 0 00-.257-.16 1.55 1.55 0 00-.33-.128 1.362 1.362 0 00-.375-.053.885.885 0 00-.434.097c-.118.069-.178.156-.178.265 0 .1.03.18.089.24.059.056.186.113.381.17.101.028.219.056.348.085.134.029.26.066.381.113.272.103.479.255.619.456.142.199.21.464.21.796a1.441 1.441 0 01-.478 1.077 1.803 1.803 0 01-.576.325c-.22.075-.486.115-.793.115" fill="#00553d"/><path d="M1.35 5.001s6.363-1.443 12.413-1.443c8.9 0 10.584.972 17.018 1.541 2.76.262 5.116.378 5.256.393.268.026.704.033.704.033V2.782H1.349v2.219" fill="#f8971d"/><path d="M1.35 5.718v1.596h35.39V5.787s-4.461-.235-6.999-.468c-4.6-.425-7.295-1.138-11.225-1.236-1.987-.048-3.752-.184-8.616.244-.907.081-4.287.526-5.875.872-.58.13-2.676.519-2.676.519" fill="#00553d"/></svg>