<svg width="38" height="24" aria-labelledby="pi-futurepaymytab" xmlns="http://www.w3.org/2000/svg"><path opacity=".07" d="M35 0H3C1.3 0 0 1.3 0 3v18c0 1.7 1.4 3 3 3h32c1.7 0 3-1.3 3-3V3c0-1.7-1.4-3-3-3z"/><path fill="#fff" d="M35 1c1.1 0 2 .9 2 2v18c0 1.1-.9 2-2 2H3c-1.1 0-2-.9-2-2V3c0-1.1.9-2 2-2h32"/><path d="M137.935 140.781c-6.279 4.907-12.332 8.571-18.159 11.025-5.857 2.453-12.427 3.663-19.676 3.663-6.635 0-12.493-1.34-17.51-3.99-5.017-2.649-8.9-6.217-11.619-10.763-2.719-4.546-4.076-9.455-4.076-14.753 0-7.163 2.232-13.249 6.73-18.286 4.498-5.07 10.679-8.439 18.545-10.174 1.618-.392 5.695-1.243 12.201-2.583 6.507-1.341 12.105-2.552 16.735-3.696a310.815 310.815 0 0015.113-4.057c-.323-6.902-1.684-11.973-4.11-15.18-2.46-3.238-7.477-4.84-15.147-4.84-6.57 0-11.521.915-14.824 2.78-3.333 1.832-6.182 4.612-8.544 8.342-2.362 3.697-4.046 6.117-5.017 7.327-1.004 1.179-3.108 1.766-6.31 1.766-2.915 0-5.438-.948-7.541-2.846-2.106-1.864-3.174-4.285-3.174-7.23 0-4.61 1.62-9.093 4.823-13.443 3.238-4.352 8.254-7.916 15.083-10.73 6.828-2.812 15.34-4.219 25.537-4.219 11.359 0 20.325 1.373 26.83 4.089 6.507 2.715 11.1 7 13.788 12.888 2.685 5.888 4.045 13.673 4.045 23.389 0 6.15-.033 11.351-.064 15.636-.033 4.285-.065 9.06-.132 14.296 0 4.906.81 10.043 2.428 15.374 1.62 5.299 2.395 8.734 2.395 10.272 0 2.683-1.228 5.135-3.722 7.328-2.524 2.191-5.34 3.303-8.511 3.303-2.655 0-5.275-1.243-7.866-3.761-2.589-2.519-5.34-6.15-8.251-10.927zm-1.716-37.913c-3.787 1.407-9.288 2.912-16.54 4.45-7.216 1.568-12.232 2.747-15.016 3.467-2.783.753-5.437 2.193-7.962 4.318-2.524 2.16-3.787 5.135-3.787 8.995 0 3.958 1.488 7.327 4.467 10.107 2.945 2.781 6.83 4.188 11.652 4.188 5.112 0 9.84-1.145 14.142-3.402 4.336-2.288 7.51-5.201 9.548-8.798 2.33-3.959 3.496-10.502 3.496-19.595v-3.73m66.825-77.692v39.976c4.856-5.137 9.84-9.06 14.889-11.777 5.049-2.716 11.329-4.089 18.77-4.089 8.61 0 16.15 2.06 22.626 6.182 6.472 4.123 11.488 10.109 15.05 17.926 3.59 7.82 5.37 17.109 5.37 27.838 0 7.917-1.002 15.18-2.977 21.786-2.006 6.61-4.886 12.366-8.673 17.208-3.788 4.874-8.417 8.604-13.82 11.253-5.404 2.65-11.362 3.99-17.866 3.99-3.98 0-7.735-.49-11.231-1.438-3.496-.949-6.505-2.225-8.964-3.795-2.461-1.539-4.564-3.174-6.312-4.84-1.716-1.636-4.013-4.124-6.862-7.46v2.585c0 4.906-1.164 8.636-3.494 11.154-2.365 2.517-5.34 3.794-8.934 3.794-3.659 0-6.57-1.277-8.77-3.794-2.17-2.518-3.27-6.248-3.27-11.154V26.323c0-5.299 1.067-9.324 3.172-12.04 2.137-2.715 5.081-4.056 8.868-4.056 3.981 0 7.056 1.309 9.192 3.893 2.169 2.585 3.236 6.28 3.236 11.056zm1.232 77.727c0 10.4 2.36 18.381 7.054 23.977 4.725 5.592 10.875 8.374 18.512 8.374 6.506 0 12.138-2.847 16.831-8.57 4.693-5.726 7.055-13.903 7.055-24.567 0-6.87-.97-12.823-2.946-17.798-1.942-4.971-4.725-8.83-8.317-11.545-3.625-2.716-7.8-4.057-12.623-4.057-4.919 0-9.287 1.341-13.14 4.057-3.852 2.715-6.893 6.64-9.093 11.776-2.233 5.135-3.333 11.252-3.333 18.353" fill="#293793"/><path d="M-189.385 131.917l-22.3-89.5v96.959c0 5.363-1.197 9.389-3.56 12.07-2.363 2.682-5.501 4.023-9.386 4.023-3.787 0-6.894-1.34-9.29-3.99-2.393-2.649-3.591-6.674-3.591-12.103V28.219c0-6.149 1.585-10.271 4.726-12.43 3.17-2.127 7.443-3.206 12.783-3.206h8.739c5.243 0 9.03.49 11.392 1.44 2.364.95 4.144 2.682 5.276 5.167 1.132 2.486 2.427 6.544 3.883 12.17l20.196 77.005 20.195-77.005c1.458-5.626 2.753-9.684 3.885-12.17 1.132-2.485 2.881-4.218 5.243-5.167 2.363-.95 6.183-1.44 11.426-1.44h8.706c5.372 0 9.643 1.08 12.816 3.206 3.14 2.159 4.725 6.281 4.725 12.43v111.157c0 5.363-1.197 9.389-3.56 12.07-2.363 2.682-5.534 4.023-9.483 4.023-3.722 0-6.796-1.34-9.19-4.024-2.397-2.68-3.594-6.706-3.594-12.07V42.417l-22.3 89.5c-1.455 5.792-2.621 10.075-3.561 12.791-.905 2.682-2.588 5.17-5.047 7.393-2.492 2.257-5.891 3.369-10.26 3.369-3.3 0-6.084-.718-8.351-2.158-2.265-1.439-4.045-3.27-5.308-5.495a31.452 31.452 0 01-2.977-7.428 512.44 512.44 0 01-2.233-8.471m131.952 26.856l2.395-5.855-31.846-81.094c-1.976-4.678-2.945-8.08-2.945-10.174 0-2.223.583-4.318 1.715-6.248 1.132-1.898 2.685-3.434 4.693-4.58 1.973-1.143 4.045-1.732 6.181-1.732 3.753 0 6.57 1.21 8.448 3.596 1.91 2.388 3.558 5.822 5.017 10.306l21.91 64.409 20.745-59.895c1.652-4.874 3.141-8.67 4.468-11.416 1.326-2.75 2.718-4.614 4.208-5.561 1.486-.949 3.592-1.44 6.31-1.44 1.943 0 3.819.524 5.63 1.57 1.782 1.08 3.174 2.486 4.177 4.285a11.597 11.597 0 011.456 5.66c-.258 1.21-.647 2.944-1.23 5.168a84.836 84.836 0 01-2.07 6.804l-33.758 89.336c-2.912 7.885-5.761 14.034-8.512 18.518-2.784 4.48-6.472 7.915-11.069 10.302-4.564 2.388-10.745 3.598-18.512 3.598-7.575 0-13.27-.815-17.056-2.486-3.788-1.667-5.698-4.71-5.698-9.093 0-3.01.907-5.333 2.719-6.936 1.781-1.636 4.467-2.452 7.994-2.452 1.391 0 2.751.195 4.079.555 1.65.395 3.075.59 4.272.59 2.978 0 5.308-.46 6.992-1.342 1.714-.883 3.236-2.453 4.594-4.645 1.36-2.225 2.947-5.462 4.693-9.748" fill="#409adb"/><path d="M22.953 8.3h-2.018v6.648c0 .383-.086.667-.258.853a.857.857 0 01-.661.277.873.873 0 01-.673-.282c-.172-.187-.26-.469-.26-.848V8.3h-2.018c-.317 0-.551-.07-.704-.21a.721.721 0 01-.232-.556c0-.237.08-.424.24-.563.16-.138.392-.207.696-.207h5.888c.322 0 .558.07.715.214a.722.722 0 01.234.556c0 .23-.08.416-.238.557-.158.138-.394.209-.71.209" fill="#293793"/><path d="M26.67 15.12c-.412.32-.81.559-1.193.719-.385.16-.817.239-1.293.239a2.45 2.45 0 01-1.151-.26 1.89 1.89 0 01-.764-.702 1.827 1.827 0 01-.268-.962c0-.466.147-.863.442-1.191.296-.33.702-.55 1.22-.664.106-.025.374-.08.801-.168a30.31 30.31 0 001.1-.24c.304-.073.636-.16.994-.265-.021-.45-.111-.78-.27-.99-.162-.21-.492-.315-.996-.315-.432 0-.757.06-.974.181-.22.12-.407.3-.562.544a6.291 6.291 0 01-.33.477c-.066.077-.204.115-.415.115a.72.72 0 01-.495-.185.6.6 0 01-.209-.471c0-.3.107-.593.317-.877.213-.283.543-.515.992-.699.448-.183 1.008-.275 1.678-.275.747 0 1.336.09 1.764.267.427.177.73.456.906.84.176.383.266.89.266 1.524 0 .401-.002.74-.004 1.02l-.009.931c0 .32.053.655.16 1.002.106.346.157.57.157.67 0 .175-.08.334-.245.477a.834.834 0 01-.56.216c-.174 0-.346-.081-.516-.245a3.671 3.671 0 01-.542-.713zm-.112-2.47a8.18 8.18 0 01-1.087.29c-.475.101-.804.178-.987.225a1.37 1.37 0 00-.524.282c-.166.14-.249.334-.249.586 0 .258.098.478.294.659.194.181.449.273.766.273.336 0 .647-.075.93-.222.284-.15.493-.34.627-.574.153-.258.23-.684.23-1.277v-.243m4.392-5.064v2.606c.32-.335.647-.59.979-.768.332-.177.744-.266 1.234-.266.566 0 1.061.134 1.487.403.425.268.755.658.989 1.168.236.51.353 1.115.353 1.815 0 .516-.066.989-.196 1.42-.132.43-.32.806-.57 1.121a2.566 2.566 0 01-.908.734 2.66 2.66 0 01-1.174.26c-.262 0-.509-.032-.739-.094a2.14 2.14 0 01-.589-.247c-.162-.1-.3-.207-.415-.316a6.911 6.911 0 01-.45-.486v.168c0 .32-.077.563-.23.727a.776.776 0 01-.588.248.73.73 0 01-.576-.248c-.143-.164-.215-.407-.215-.727V7.66c0-.345.07-.608.208-.785.14-.177.334-.264.583-.264.262 0 .464.085.604.254.143.168.213.409.213.72zm.081 5.066c0 .678.155 1.199.464 1.563.31.365.715.546 1.217.546.427 0 .797-.185 1.106-.559.308-.373.464-.906.464-1.6 0-.449-.064-.837-.194-1.16a1.685 1.685 0 00-.547-.753 1.348 1.348 0 00-.83-.265c-.323 0-.61.088-.863.265a1.758 1.758 0 00-.598.767c-.147.335-.219.734-.219 1.196" fill="#293793"/><path d="M5.156 14.543L3.69 8.709v6.32c0 .35-.079.612-.234.786a.786.786 0 01-.617.263.79.79 0 01-.61-.26c-.158-.173-.237-.435-.237-.79V7.785c0-.401.105-.67.311-.81.208-.14.49-.21.84-.21h.575c.344 0 .593.032.748.094a.631.631 0 01.347.337c.075.162.16.427.255.793l1.328 5.02 1.327-5.02c.096-.366.181-.63.256-.793a.628.628 0 01.344-.337c.156-.062.407-.094.751-.094h.573c.353 0 .634.07.842.21.206.14.31.409.31.81v7.245c0 .35-.078.612-.233.786a.793.793 0 01-.624.263.777.777 0 01-.604-.263c-.157-.174-.236-.437-.236-.786V8.71l-1.466 5.834c-.095.377-.172.656-.234.833-.06.175-.17.337-.332.482-.163.147-.387.22-.674.22-.217 0-.4-.047-.549-.141a1.02 1.02 0 01-.349-.358 2.04 2.04 0 01-.195-.484 33.176 33.176 0 01-.147-.552m8.673 1.749l.157-.382-2.093-5.285c-.13-.305-.193-.527-.193-.663a.79.79 0 01.112-.408.83.83 0 01.309-.298.807.807 0 01.406-.113c.247 0 .432.079.555.234.126.156.234.38.33.672l1.44 4.198 1.364-3.904c.108-.317.206-.565.294-.744.087-.179.178-.3.276-.362.098-.062.236-.094.415-.094a.75.75 0 01.74.75 7.267 7.267 0 01-.08.337 5.495 5.495 0 01-.137.444l-2.219 5.823c-.191.514-.378.914-.56 1.207a1.838 1.838 0 01-.727.671c-.3.156-.706.235-1.216.235-.498 0-.873-.053-1.122-.162-.249-.109-.374-.307-.374-.593 0-.196.06-.348.179-.452.117-.107.293-.16.525-.16.092 0 .18.013.268.036.109.026.202.039.281.039.196 0 .349-.03.46-.088a.803.803 0 00.302-.303 4.56 4.56 0 00.308-.635" fill="#409adb"/></svg>