<svg viewBox="0 0 36 36" fill="none" xmlns="http://www.w3.org/2000/svg"><g filter="url(#filter0_d_1100_1401)"><path d="M27 16a9 9 0 11-18 0 9 9 0 0118 0z" fill="#1878B9"/></g><g filter="url(#filter1_d_1100_1401)"><path fill-rule="evenodd" clip-rule="evenodd" d="M18 26c5.523 0 10-4.477 10-10S23.523 6 18 6 8 10.477 8 16s4.477 10 10 10z" fill="#fff"/></g><path d="M26 16a8 8 0 11-16 0 8 8 0 0116 0z" fill="#1879B9"/><path fill-rule="evenodd" clip-rule="evenodd" d="M18 24a8 8 0 100-16 8 8 0 000 16zm0-1a7 7 0 100-14 7 7 0 000 14z" fill="#000" fill-opacity=".3"/><defs><filter id="filter0_d_1100_1401" x="5" y="7" width="26" height="26" filterUnits="userSpaceOnUse" color-interpolation-filters="sRGB"><feFlood flood-opacity="0" result="BackgroundImageFix"/><feColorMatrix in="SourceAlpha" values="0 0 0 0 0 0 0 0 0 0 0 0 0 0 0 0 0 0 127 0" result="hardAlpha"/><feOffset dy="4"/><feGaussianBlur stdDeviation="2"/><feComposite in2="hardAlpha" operator="out"/><feColorMatrix values="0 0 0 0 0 0 0 0 0 0 0 0 0 0 0 0 0 0 0.24 0"/><feBlend in2="BackgroundImageFix" result="effect1_dropShadow_1100_1401"/><feBlend in="SourceGraphic" in2="effect1_dropShadow_1100_1401" result="shape"/></filter><filter id="filter1_d_1100_1401" x="0" y="0" width="36" height="36" filterUnits="userSpaceOnUse" color-interpolation-filters="sRGB"><feFlood flood-opacity="0" result="BackgroundImageFix"/><feColorMatrix in="SourceAlpha" values="0 0 0 0 0 0 0 0 0 0 0 0 0 0 0 0 0 0 127 0" result="hardAlpha"/><feOffset dy="2"/><feGaussianBlur stdDeviation="4"/><feColorMatrix values="0 0 0 0 0 0 0 0 0 0 0 0 0 0 0 0 0 0 0.16 0"/><feBlend in2="BackgroundImageFix" result="effect1_dropShadow_1100_1401"/><feBlend in="SourceGraphic" in2="effect1_dropShadow_1100_1401" result="shape"/></filter></defs></svg>