<svg viewBox="0 0 40 40" fill="none" xmlns="http://www.w3.org/2000/svg"><g filter="url(#filter0_d_1115_666)"><rect x="2" width="36" height="36" rx="18" fill="#fff"/></g><path d="M4 18C4 9.163 11.163 2 20 2s16 7.163 16 16-7.163 16-16 16S4 26.837 4 18z" fill="#BA264A"/><path fill-rule="evenodd" clip-rule="evenodd" d="M5 18c0 8.284 6.716 15 15 15 8.284 0 15-6.716 15-15 0-8.284-6.716-15-15-15C11.716 3 5 9.716 5 18zM20 2C11.163 2 4 9.163 4 18s7.163 16 16 16 16-7.163 16-16S28.837 2 20 2z" fill="#000" fill-opacity=".3"/><path d="M17.946 20.413c0-1.814 1.42-2.98 3.54-2.602v-3.139c-4.32-.567-6.875 2.05-6.875 5.74v4.1l3.335 1.988v-6.087z" fill="#fff"/><path d="M22.235 14.672h3.154v3.154h-3.154v-3.154zM18.411 9.5c1.057 0 1.916.86 1.916 1.916 0 1.057-.86 1.916-1.916 1.916a1.918 1.918 0 01-1.916-1.916c0-1.056.852-1.916 1.916-1.916z" fill="#CCC7BE"/><defs><filter id="filter0_d_1115_666" x="0" y="0" width="40" height="40" filterUnits="userSpaceOnUse" color-interpolation-filters="sRGB"><feFlood flood-opacity="0" result="BackgroundImageFix"/><feColorMatrix in="SourceAlpha" values="0 0 0 0 0 0 0 0 0 0 0 0 0 0 0 0 0 0 127 0" result="hardAlpha"/><feOffset dy="2"/><feGaussianBlur stdDeviation="1"/><feColorMatrix values="0 0 0 0 0 0 0 0 0 0 0 0 0 0 0 0 0 0 0.16 0"/><feBlend in2="BackgroundImageFix" result="effect1_dropShadow_1115_666"/><feBlend in="SourceGraphic" in2="effect1_dropShadow_1115_666" result="shape"/></filter></defs></svg>