<svg xmlns="http://www.w3.org/2000/svg" width="38" height="24" aria-labelledby="pi-maxima"><path d="M35 0H3C1.3 0 0 1.3 0 3v18c0 1.7 1.4 3 3 3h32c1.7 0 3-1.3 3-3V3c0-1.7-1.4-3-3-3z" fill-opacity=".07"/><path d="M35 1c1.1 0 2 .9 2 2v18c0 1.1-.9 2-2 2H3c-1.1 0-2-.9-2-2V3c0-1.1.9-2 2-2h32" fill="#fff"/><clipPath id="a"><path d="M35 1c1.1 0 2 .9 2 2v18c0 1.1-.9 2-2 2H3c-1.1 0-2-.9-2-2V3c0-1.1.9-2 2-2h32"/></clipPath><g clip-path="url(#a)"><path d="M12.446 12.106h.806l-.321-1.075-.485 1.075zm-.452-2.254h2.038a62.398 62.398 0 00.511 1.455c.223.62.403 1.107.537 1.461l.148.383-.046 1.079h-1.327a8.765 8.765 0 00-.15-.512 17.18 17.18 0 01-.171-.498h-1.566l-.446 1.01H9.654a67.463 67.463 0 002.34-4.378m18.789 2.254h.805l-.32-1.075-.485 1.075zm-.453-2.254h2.038c.167.493.337.98.511 1.455.223.62.402 1.107.538 1.461.187.49.376.976.563 1.462h-1.79a8.934 8.934 0 00-.15-.512 25.26 25.26 0 01-.17-.498h-1.566l-.446 1.01H27.99c.389-.66.792-1.383 1.212-2.17.376-.703.75-1.439 1.127-2.208" fill="#004a91"/><path d="M22.793 9.852h2.163c.023.149.083.53.183 1.147.084.502.138.894.165 1.173.087-.367.216-.852.386-1.455.14-.494.22-.783.242-.865h2.216c0 .472-.012.956-.036 1.452a245.89 245.89 0 00-.072 1.56c-.024.543-.036.999-.036 1.365h-1.455c0-.31.01-.66.032-1.048.053-.934.08-1.52.08-1.757l-.793 2.805h-1.436l-.458-2.805c-.049.446-.09.92-.125 1.423a19.88 19.88 0 00-.053 1.382h-1.382c.056-.485.115-.983.177-1.493.06-.512.11-1.006.147-1.482.037-.475.055-.943.055-1.402m-2.64 0h1.762a51.037 51.037 0 00-.19 4.377h-1.56l-.214-.196c.004-.359.02-.76.048-1.202l.101-1.635c.035-.564.053-1.012.053-1.344m-15.761 0h2.163c.022.149.083.53.183 1.147.083.502.138.894.164 1.173.088-.367.216-.852.387-1.455.14-.494.22-.783.242-.865h2.215c0 .472-.012.956-.036 1.452-.023.495-.048 1.015-.072 1.56-.024.543-.036.999-.036 1.365H8.147c0-.31.01-.66.033-1.048.052-.934.078-1.52.078-1.757l-.792 2.805H6.03l-.458-2.805c-.049.446-.09.92-.125 1.423-.035.502-.052.963-.052 1.382H4.013c.056-.485.115-.983.176-1.493.061-.512.11-1.006.148-1.482.036-.475.055-.943.055-1.402" fill="#004a91"/><path d="M19.853 14.272l-.154.153a.467.467 0 00-.098-.011c-.06 0-.11.033-.154.099-.022.043.005.1.077.175.029.029.11.09.241.186v.022c0 .022.011.099.033.23-.445 0-.844-.088-1.194-.263-.219-.11-.559-.344-1.019-.701a6.114 6.114 0 01-.509-.482 4.39 4.39 0 01-.422-.547l-1.27 1.051.033-.789.832-1.008a3.273 3.273 0 01-.405-.547 3.811 3.811 0 01-.197-.487 2.725 2.725 0 01-.11-.488.418.418 0 00.055-.153l-.033-.142 1.183-1.206.942 1.545 1.796-1.972c.037-.044.066-.065.088-.065.05 0 .077.098.077.295 0 .16-.011.329-.033.504-.022.176-.037.296-.044.362-.066.335-.318.682-.756 1.04-.292.241-.504.45-.635.625a12.688 12.688 0 00.558 1.106c.182.306.355.565.515.777.16.211.362.441.603.69z" fill="#ed1921"/></g></svg>