<svg width="80" height="24" fill="none" xmlns="http://www.w3.org/2000/svg"><path d="M23.338 19.954a3.487 3.487 0 01-2.63 3.254 51.997 51.997 0 01-18.082 0A3.491 3.491 0 010 19.954V4.046A3.496 3.496 0 012.63.792a51.997 51.997 0 0118.082 0 3.487 3.487 0 012.63 3.254l-.004 15.908z" fill="#AC0047"/><path d="M12.96 7.142c-1.292-.23-2.156.48-2.156 1.584v3.706l-2.03-1.21V8.726c0-2.246 1.555-3.84 4.186-3.494v1.91zM3.494 20.16h.912v-2.352a.836.836 0 01.235-.605.877.877 0 01.624-.23c.163.005.322.019.48.048v-.912a4.433 4.433 0 00-.566-.048 1.62 1.62 0 00-1.68 1.742l-.005 2.357zm3.149-.36a1.355 1.355 0 01-.336-.96V17.4a1.35 1.35 0 01.336-.96 1.3 1.3 0 01.96-.37h1.464v.898h-1.44a.444.444 0 00-.327.091.444.444 0 00-.09.327v.297h1.588v.855H7.199v.297c-.014.12.02.235.092.331a.444.444 0 00.326.092h1.44v.902H7.622a1.301 1.301 0 01-.96-.37l-.02.01zm3.57.01a1.334 1.334 0 01-.335-.96v-2.76h.907v2.755c-.014.12.02.24.091.336.091.077.207.11.322.096h1.262l-.312.883h-.96a1.32 1.32 0 01-.96-.36l-.014.01zm7.546.35v-1.555l-1.372-2.52h1.027l.797 1.579.801-1.58h1.027l-1.367 2.52v1.556h-.913zm-2.227-3.5c-.197-.575-.48-.575-.633-.575h-.255c-.149 0-.432 0-.633.576-.293.878-1.215 3.499-1.215 3.499h.96l.264-.787h1.508l.268.787h.96l-1.224-3.5zm-1.224 1.868l.48-1.382.48 1.382h-.96zm2.971-4.565c-.072-.211-.177-.211-.23-.211h-.091c-.053 0-.159 0-.23.211l-.447 1.287h.355l.096-.288h.547l.096.288h.356l-.452-1.287zm-.48.687l.173-.51.173.51H16.8zm-11.774.6v-.99a.213.213 0 00-.206-.215h-.015a.205.205 0 00-.216.197v1.008h-.336v-.99a.205.205 0 00-.197-.215h-.019a.213.213 0 00-.22.201v.015h.023v.989h-.35v-.984a.537.537 0 01.528-.548h.024a.51.51 0 01.384.168.509.509 0 01.384-.168.537.537 0 01.552.524v1.008h-.336zm1.666-.759a.742.742 0 01.71-.777h.024a.74.74 0 01.734.753v.024a.742.742 0 01-.71.778h-.024a.742.742 0 01-.734-.754v-.024zm.336 0a.437.437 0 00.388.48h.01a.435.435 0 00.398-.47v-.01a.435.435 0 00-.379-.48h-.019a.43.43 0 00-.398.461c-.005.005 0 .014 0 .02zm3.432-.619c.1.106.158.25.153.394v.96h-.33v-.965a.195.195 0 00-.174-.216h-.048a.196.196 0 00-.216.177v1.028h-.33v-.96a.55.55 0 01.153-.394.56.56 0 01.398-.154.554.554 0 01.399.154l-.005-.024zm2.17 1.378h-.562v-1.498h.561a.645.645 0 01.48.202c.125.153.192.35.183.547a.8.8 0 01-.183.542.65.65 0 01-.48.207zm0-1.186h-.231v.869h.23c.303 0 .341-.264.346-.437 0-.211-.058-.432-.346-.432zm1.963 1.186v-1.498h.33v1.498h-.33zm4.78 0a.477.477 0 01-.36-.135.493.493 0 01-.125-.35v-1.013h.332v1.008c0 .125.028.154.148.158h.48v.332h-.475z" fill="#fff"/><path d="M13.422 5.232h1.92v1.92h-1.92v-1.92zm-2.328-3.149a1.168 1.168 0 010 2.333 1.168 1.168 0 010-2.333z" fill="#CCC7BE"/></svg>