<svg viewBox="0 0 120 24" fill="none" xmlns="http://www.w3.org/2000/svg"><path d="M11.81 10.946h-.252l-.442-.256a.124.124 0 01-.126-.127v-.704c0-.128 0-.128.126-.255l5.306-3.323L8.716 2H8.21L.442 6.282l8.716 5.111c.126 0 .126.128.126.256v7.412c0 .128 0 .128-.126.256l-.442.256h-.253l-.442-.256c-.126 0-.126-.128-.126-.256V12.48a.125.125 0 00-.126-.127L0 7.815v8.818c.03.212.117.41.253.576l7.831 4.663c.126 0 .126.128.253.128.126 0 .252 0 .252-.128l7.832-4.664a.705.705 0 00.253-.575V7.815l-4.863 3.13z" fill="url(#paint0_linear_456_45179)"/><path d="M67.832 19.38h-2.018V9.476a9.695 9.695 0 013.155-.703c2.417 0 4.105 1.524 4.105 3.706 0 2.477-1.496 3.898-4.105 3.898V14.78a1.911 1.911 0 001.486-.61 2.52 2.52 0 00.535-1.69 1.869 1.869 0 00-2.02-2.046 1.61 1.61 0 00-1.138.256v8.69zm-41.747-2.556a3.705 3.705 0 01-3.853-3.897 3.71 3.71 0 013.852-3.898c.706-.09 1.42.07 2.022.447v1.917a2.608 2.608 0 00-1.832-.703 1.869 1.869 0 00-2.021 2.045 1.867 1.867 0 002.02 2.045 5.654 5.654 0 001.107-.146h.01c.235-.058.475-.094.716-.107v1.853l-.184.057-.043.013-.06.019a5.89 5.89 0 01-1.735.355zm65.303-.192c-2.095 0-3.157-1.01-3.157-3.003V6.281h2.02v2.748h2.527v1.598h-2.527v3.002c0 .72.52 1.15 1.388 1.15.458.053.92-.036 1.326-.255v1.853c-.503.19-1.04.277-1.577.255zm-7.01 0a4.481 4.481 0 01-2.172-.639h.15v-1.852a3.45 3.45 0 002.274.894.798.798 0 00.884-.703c0-.273-.308-.462-1.136-.703-1.615-.261-2.274-.928-2.274-2.3a2.093 2.093 0 01.766-1.753 3.158 3.158 0 011.95-.55 3.458 3.458 0 012.02.447v1.856a3.524 3.524 0 00-2.02-.703c-.595 0-.885.23-.885.703 0 .234.146.432.885.703a3.57 3.57 0 011.95.719 1.993 1.993 0 01.576 1.58c.003 1.697-1.531 2.301-2.968 2.301zm-6.822-.063a3.706 3.706 0 01-3.852-3.898 3.853 3.853 0 117.705 0 3.708 3.708 0 01-3.85 3.898h-.003zm0-5.942c-1.198 0-1.831.706-1.831 2.044a1.861 1.861 0 001.831 2.045c1.199 0 1.832-.707 1.832-2.045.002-1.3-.665-2.044-1.83-2.044h-.002zm-16.293 5.942a3.706 3.706 0 01-3.852-3.898 3.855 3.855 0 015.34-3.607 3.852 3.852 0 012.365 3.607 3.707 3.707 0 01-3.853 3.898zm0-5.942c-1.197 0-1.83.706-1.83 2.044a1.863 1.863 0 001.83 2.045c1.199 0 1.832-.707 1.832-2.045a1.9 1.9 0 00-1.832-2.044zm-15.915 5.942a3.706 3.706 0 01-3.853-3.898 3.708 3.708 0 013.853-3.898 3.709 3.709 0 013.853 3.898 3.708 3.708 0 01-3.853 3.898zm0-5.942c-1.199 0-1.832.706-1.832 2.044a1.863 1.863 0 001.832 2.045c1.198 0 1.831-.707 1.831-2.045 0-1.3-.667-2.044-1.831-2.044zm6.569 5.751h-1.77V9.476a8.37 8.37 0 013.413-.703 3.445 3.445 0 012.337.64 2.951 2.951 0 01.821 2.364v4.6h-2.02v-4.6c0-.72-.52-1.15-1.388-1.15a2.58 2.58 0 00-1.388.254v5.496l-.005.001zm-12.948 0h-2.022v-4.6a2.91 2.91 0 01.892-2.364 3.45 3.45 0 012.264-.64c.233.01.464.047.688.112.311.089.631.138.954.146v1.85a2.806 2.806 0 00-1.387-.255c-1.014 0-1.388.311-1.388 1.15v4.6l-.001.001zm-4.924 0v-4.6c0-.72-.519-1.15-1.387-1.15a2.58 2.58 0 00-1.388.254v5.496h-2.028v-10.8h2.274v3.45c.237-.011.473-.046.703-.103h.02a5.61 5.61 0 011.106-.146 2.74 2.74 0 012.716 3.004v4.6l-2.016-.005z" fill="#3C3C3B"/><defs><linearGradient id="paint0_linear_456_45179" x1="-.067" y1="12.02" x2="16.908" y2="12.02" gradientUnits="userSpaceOnUse"><stop stop-color="#006CAF"/><stop offset=".332" stop-color="#0081C5"/><stop offset=".733" stop-color="#0095DA"/><stop offset="1" stop-color="#009CE1"/></linearGradient></defs></svg>