<svg viewBox="0 0 40 40" fill="none" xmlns="http://www.w3.org/2000/svg"><g filter="url(#filter0_d_455_45110)"><rect x="2" width="36" height="36" rx="18" fill="#fff"/></g><path d="M4 18C4 9.163 11.163 2 20 2s16 7.163 16 16-7.163 16-16 16S4 26.837 4 18z" fill="#02A3DC"/><path d="M22.758 17.236a.759.759 0 01-1.025-.28.759.759 0 01.28-1.024l5.18-2.963-6.578-3.801a1.211 1.211 0 00-1.23 0l-6.596 3.8 7.956 4.585v6.615c0 .41-.335.745-.745.745a.748.748 0 01-.745-.745v-5.74l-7.211-4.155v7.621c0 .448.242.839.614 1.063l6.727 3.875a1.21 1.21 0 001.23 0l6.727-3.876a1.26 1.26 0 00.614-1.062v-7.62l-5.198 2.962z" fill="#fff"/><path fill-rule="evenodd" clip-rule="evenodd" d="M5 18c0 8.284 6.716 15 15 15 8.284 0 15-6.716 15-15 0-8.284-6.716-15-15-15C11.716 3 5 9.716 5 18zM20 2C11.163 2 4 9.163 4 18s7.163 16 16 16 16-7.163 16-16S28.837 2 20 2z" fill="#000" fill-opacity=".3"/><defs><filter id="filter0_d_455_45110" x="0" y="0" width="40" height="40" filterUnits="userSpaceOnUse" color-interpolation-filters="sRGB"><feFlood flood-opacity="0" result="BackgroundImageFix"/><feColorMatrix in="SourceAlpha" values="0 0 0 0 0 0 0 0 0 0 0 0 0 0 0 0 0 0 127 0" result="hardAlpha"/><feOffset dy="2"/><feGaussianBlur stdDeviation="1"/><feColorMatrix values="0 0 0 0 0 0 0 0 0 0 0 0 0 0 0 0 0 0 0.16 0"/><feBlend in2="BackgroundImageFix" result="effect1_dropShadow_455_45110"/><feBlend in="SourceGraphic" in2="effect1_dropShadow_455_45110" result="shape"/></filter></defs></svg>