<svg xmlns="http://www.w3.org/2000/svg" width="38" height="24" aria-labelledby="pi-billie"><path opacity=".07" d="M35 0H3C1.3 0 0 1.3 0 3v18c0 1.7 1.4 3 3 3h32c1.7 0 3-1.3 3-3V3c0-1.7-1.4-3-3-3z"/><path fill="#fff" d="M35 1c1.1 0 2 .9 2 2v18c0 1.1-.9 2-2 2H3c-1.1 0-2-.9-2-2V3c0-1.1.9-2 2-2h32"/><path fill="#090A0E" d="M20.232 20.226H13V8.36a5.292 5.292 0 011.664-3.844 5.229 5.229 0 013.948-1.418c2.719.173 4.931 2.475 4.931 5.136-.005.81-.098 1.618-.279 2.408a5.27 5.27 0 012.24 4.312 5.28 5.28 0 01-5.272 5.272zm-2.372-2.2h2.372a3.071 3.071 0 002.18-5.237c-1.047 1.99-2.536 3.707-4.552 5.237zm-2.66-6.145v5.322c2.426-1.547 4.091-3.25 5.202-5.318a3.17 3.17 0 00-.17-.004H15.2zm0-2.2h5.032c.324 0 .647.03.966.089a8.8 8.8 0 00.146-1.536c0-1.522-1.288-2.84-2.87-2.941A3.074 3.074 0 0015.2 8.36v1.32z"/></svg>