<svg viewBox="0 0 40 40" fill="none" xmlns="http://www.w3.org/2000/svg"><g filter="url(#filter0_d_1068_336)"><rect x="2" width="36" height="36" rx="18" fill="#fff"/></g><path d="M4 18C4 9.163 11.163 2 20 2s16 7.163 16 16-7.163 16-16 16S4 26.837 4 18z" fill="#fff"/><path fill-rule="evenodd" clip-rule="evenodd" d="M5 18c0 8.284 6.716 15 15 15 8.284 0 15-6.716 15-15 0-8.284-6.716-15-15-15C11.716 3 5 9.716 5 18zM20 2C11.163 2 4 9.163 4 18s7.163 16 16 16 16-7.163 16-16S28.837 2 20 2z" fill="#000" fill-opacity=".3"/><path d="M22.994 17.021a.298.298 0 01-.256 0l-.422-.256a.3.3 0 01-.09-.09.287.287 0 01-.038-.127l-.013-.486c0-.077.051-.18.128-.23l5.028-2.93-7.062-3.838a.651.651 0 00-.563 0l-7.062 3.838 7.906 4.606a.247.247 0 01.128.217v6.716c0 .077-.064.18-.128.218l-.422.243a.373.373 0 01-.128.025h-.013a.46.46 0 01-.14-.025l-.423-.243c-.076-.038-.127-.14-.127-.218v-5.987c0-.051-.039-.102-.077-.115l-6.96-4.068v7.944c0 .18.128.397.282.486l7.177 4.235A.51.51 0 0020 27a.651.651 0 00.282-.064l7.177-4.235a.625.625 0 00.281-.486v-7.944l-4.746 2.75z" fill="url(#paint0_linear_1068_336)"/><defs><linearGradient id="paint0_linear_1068_336" x1="12.437" y1="22.521" x2="27.311" y2="13.288" gradientUnits="userSpaceOnUse"><stop stop-color="#EB6608"/><stop offset=".19" stop-color="#EC6C08"/><stop offset=".437" stop-color="#EF7C07"/><stop offset=".717" stop-color="#F49706"/><stop offset="1" stop-color="#FABA05"/></linearGradient><filter id="filter0_d_1068_336" x="0" y="0" width="40" height="40" filterUnits="userSpaceOnUse" color-interpolation-filters="sRGB"><feFlood flood-opacity="0" result="BackgroundImageFix"/><feColorMatrix in="SourceAlpha" values="0 0 0 0 0 0 0 0 0 0 0 0 0 0 0 0 0 0 127 0" result="hardAlpha"/><feOffset dy="2"/><feGaussianBlur stdDeviation="1"/><feColorMatrix values="0 0 0 0 0 0 0 0 0 0 0 0 0 0 0 0 0 0 0.16 0"/><feBlend in2="BackgroundImageFix" result="effect1_dropShadow_1068_336"/><feBlend in="SourceGraphic" in2="effect1_dropShadow_1068_336" result="shape"/></filter></defs></svg>