<svg aria-labelledby="pi-pix" width="38" height="24" xmlns="http://www.w3.org/2000/svg" xmlns:bx="https://boxy-svg.com"><path opacity=".07" d="M35 0H3C1.3 0 0 1.301 0 3v18c0 1.7 1.4 3 3 3h32c1.7 0 3-1.3 3-3V3c0-1.699-1.4-3-3-3z"/><path fill="#fff" d="M35 1c1.1 0 2 .9 2 2v18c0 1.1-.9 2-2 2H3c-1.1 0-2-.9-2-2V3c0-1.1.9-2 2-2h32" bx:origin="0.5 0.5"/><path d="M633.421 99.49V51.164c0-8.892 7.208-16.1 16.1-16.1l14.268.022c8.865.017 16.043 7.21 16.043 16.075v10.286c0 8.892-7.208 16.1-16.1 16.1h-20.161m40.249-42.488h6.189a6.607 6.607 0 016.606 6.607v36.098" fill="none" stroke="#939598" stroke-width="2.976" stroke-linecap="round" stroke-linejoin="round" stroke-miterlimit="10" transform="matrix(.14767 0 0 .14241 -77.79 2.037)"/><path d="M24.883 6.233l-.414-.4a.263.254 0 010-.359l.414-.4a.264.254 0 01.373 0l.414.4a.263.254 0 010 .36l-.414.4a.263.254 0 01-.373 0" fill="#32bcad"/><path d="M708.49 35.027h6.137c3.158 0 6.186 1.254 8.419 3.486l14.356 14.357a4.762 4.762 0 006.735 0l14.304-14.304a11.906 11.906 0 018.418-3.487h4.99M708.49 77.448h6.137c3.158 0 6.186-1.254 8.419-3.487l14.356-14.356a4.762 4.762 0 016.735 0l14.304 14.304a11.906 11.906 0 008.418 3.487h4.99" fill="none" stroke="#939598" stroke-width="2.976" stroke-linecap="round" stroke-linejoin="round" stroke-miterlimit="10" transform="matrix(.14767 0 0 .14241 -77.79 2.037)"/><path d="M10.343 14.373c-.454 0-.882-.171-1.204-.481l-1.74-1.678a.34.34 0 00-.456 0l-1.745 1.684a1.693 1.632 0 01-1.205.48H3.65l2.203 2.125a1.808 1.808 0 002.491 0l2.209-2.13zM3.993 8.44c.455 0 .883.171 1.205.481l1.745 1.684a.323.312 0 00.457 0l1.739-1.678a1.693 1.632 0 011.204-.48h.21l-2.209-2.13a1.808 1.808 0 00-2.491 0L3.65 8.44z" fill="#32bcad"/><path d="M12.38 10.208l-1.335-1.287a.261.261 0 01-.095.018h-.607a1.2 1.157 0 00-.842.337l-1.74 1.677a.832.803 0 01-.59.236.832.803 0 01-.59-.236L4.836 9.27a1.2 1.157 0 00-.843-.337h-.746a.26.26 0 01-.09-.017l-1.34 1.292a1.656 1.656 0 000 2.403l1.34 1.292a.26.26 0 01.09-.017h.746a1.2 1.157 0 00.843-.337l1.745-1.683a.878.878 0 011.18 0l1.74 1.677a1.2 1.157 0 00.842.337h.607c.034 0 .066.007.095.018l1.335-1.287a1.656 1.656 0 000-2.403" fill="#32bcad"/><path d="M17.559 15.62c-.098 0-.213.023-.326.048v.42a.781.781 0 00.254.04c.218 0 .321-.07.321-.256 0-.174-.084-.252-.249-.252m-.4.779v-.83h.06l.006.037c.101-.023.24-.053.34-.053.081 0 .159.012.223.062.075.06.099.154.099.258 0 .108-.037.21-.14.266a.555.555 0 01-.253.055.94.94 0 01-.261-.039v.244zm1.275-.781c-.218 0-.315.066-.315.251 0 .179.096.26.315.26.217 0 .314-.065.314-.25 0-.18-.096-.261-.314-.261m.28.51a.486.486 0 01-.28.066.492.492 0 01-.281-.065c-.08-.055-.113-.143-.113-.255 0-.11.033-.2.113-.256a.493.493 0 01.281-.065c.113 0 .208.016.28.065.082.055.113.145.113.255 0 .111-.033.202-.112.256m1.032.048l-.243-.504H19.5l-.24.504h-.065l-.26-.607h.082l.215.51h.005l.234-.51h.068l.24.51h.005l.211-.51h.078l-.259.607zm.796-.56c-.202 0-.271.086-.283.211h.566c-.007-.138-.08-.211-.283-.211m-.003.576c-.121 0-.2-.016-.262-.067-.073-.061-.098-.15-.098-.252 0-.098.034-.201.117-.26a.434.434 0 01.246-.061.45.45 0 01.251.059c.091.059.109.162.109.28h-.646c.003.125.045.235.29.235.115 0 .224-.018.325-.034v.063c-.105.018-.221.038-.332.038m.574-.017v-.607h.06l.006.036c.133-.033.195-.053.313-.053h.008v.067h-.017c-.099 0-.158.013-.297.048v.509zm.814-.56c-.201 0-.27.086-.282.211h.565c-.006-.138-.08-.211-.283-.211m-.002.576c-.121 0-.2-.016-.262-.067-.073-.061-.098-.15-.098-.252 0-.098.033-.201.117-.26a.434.434 0 01.245-.061c.082 0 .175.008.252.059.091.059.109.162.109.28h-.646c.003.125.045.235.29.235.115 0 .223-.018.324-.034v.063c-.104.018-.22.038-.331.038m1.168-.535a.755.728 0 00-.254-.041c-.218 0-.322.07-.322.256 0 .175.085.252.25.252.098 0 .213-.023.326-.047zm.014.518l-.006-.036c-.101.022-.241.053-.34.053a.34.34 0 01-.224-.063c-.075-.059-.098-.154-.098-.257 0-.108.037-.21.14-.266a.542.542 0 01.254-.055.98.98 0 01.26.038v-.277h.074v.863zm1.138-.557c-.099 0-.213.023-.327.048v.419c.08.028.169.042.255.042.218 0 .321-.071.321-.257 0-.174-.085-.252-.25-.252m.189.52a.554.554 0 01-.253.054.896.864 0 01-.282-.046l-.003.029h-.05v-.863h.073v.29c.101-.022.237-.051.333-.051a.35.35 0 01.223.062c.075.06.099.154.099.258 0 .108-.038.21-.14.266m.237.271v-.066c.036.003.07.006.094.006.09 0 .145-.025.197-.125l.023-.048-.329-.607h.085l.282.524h.005l.268-.524h.083l-.354.681c-.065.124-.134.165-.263.165a.82.82 0 01-.09-.006m1.721-.58h-.245v.213h.246c.168 0 .232-.018.232-.107 0-.095-.088-.105-.233-.105m-.045-.345h-.2v.216h.201c.166 0 .232-.02.232-.11 0-.096-.084-.106-.233-.106m.379.633c-.09.055-.199.058-.397.058h-.372v-.824h.363c.171 0 .276.003.363.053.062.036.087.092.087.164 0 .086-.037.144-.134.183v.004c.11.024.18.079.18.195 0 .08-.03.131-.09.167m.836-.197a2.638 2.544 0 00-.227-.01c-.128 0-.173.025-.173.082 0 .053.037.082.136.082.082 0 .18-.018.264-.036zm.037.255l-.005-.036a1.57 1.57 0 01-.341.053.337.337 0 01-.19-.045c-.048-.032-.07-.085-.07-.147a.17.17 0 01.105-.164.597.597 0 01.236-.033 3.7 3.7 0 01.228.009v-.011c0-.095-.065-.126-.242-.126-.068 0-.152.003-.232.01v-.122a3.58 3.58 0 01.27-.012c.11 0 .224.008.294.056.072.05.086.118.086.208v.36zm.96 0v-.336c0-.11-.058-.15-.163-.15-.077 0-.174.02-.257.039v.447h-.175v-.607h.143l.006.038a1.51 1.51 0 01.337-.055c.077 0 .156.01.215.062.05.044.069.104.069.19v.372zm.671.017c-.08 0-.17-.011-.234-.064-.077-.06-.1-.155-.1-.257 0-.097.033-.201.129-.26a.513.513 0 01.276-.06c.073 0 .144.005.222.012v.13a2.368 2.368 0 00-.2-.011c-.167 0-.246.05-.246.19 0 .13.059.187.196.187.08 0 .173-.014.264-.03v.124c-.098.02-.206.038-.307.038m.826-.513c-.167 0-.24.05-.24.189 0 .138.072.197.24.197.166 0 .238-.05.238-.187 0-.139-.07-.199-.238-.199m.302.45a.553.553 0 01-.302.064c-.126 0-.227-.015-.303-.064-.087-.055-.118-.147-.118-.256 0-.11.03-.202.118-.257.076-.05.177-.064.303-.064.125 0 .224.014.302.064.087.055.117.147.117.256 0 .11-.031.202-.117.257m1.131.064a.486.486 0 01-.306-.086c-.102-.082-.134-.208-.134-.344a.4.4 0 01.174-.35.674.674 0 01.361-.077c.095 0 .192.006.298.014v.148a3.851 3.714 0 00-.29-.013c-.243 0-.347.089-.347.278 0 .194.096.28.276.28.117 0 .248-.022.38-.049v.147c-.133.025-.27.052-.412.052m.928-.533c-.146 0-.202.05-.213.143h.424c-.005-.098-.065-.143-.211-.143m-.026.533c-.104 0-.197-.012-.267-.068-.075-.06-.1-.15-.1-.253 0-.093.03-.196.118-.256a.48.48 0 01.275-.064.5.5 0 01.273.061c.1.069.11.175.11.3h-.597c.003.092.054.152.231.152.11 0 .232-.015.336-.031v.119c-.121.02-.253.04-.38.04m1.193-.017v-.336c0-.11-.059-.15-.164-.15-.077 0-.174.02-.256.039v.447h-.176v-.607h.143l.006.038a1.51 1.51 0 01.337-.055c.077 0 .156.01.216.062.05.044.068.104.068.19v.372zm.674.017c-.084 0-.162-.023-.204-.087a.307.307 0 01-.046-.184v-.227h-.127v-.126h.127l.019-.184h.155v.184h.248v.126h-.248v.195c0 .047.004.086.018.115.018.04.06.057.114.057a.832.832 0 00.126-.012v.12a1.03 1.03 0 01-.182.023m.344-.017v-.607h.143l.006.038c.116-.031.202-.055.312-.055l.022.001v.144h-.06c-.087 0-.152.009-.248.03v.449zm1.122-.255a2.637 2.543 0 00-.227-.01c-.128 0-.173.025-.173.082 0 .053.037.082.136.082.082 0 .18-.018.264-.036zm.037.255l-.004-.036a1.57 1.57 0 01-.342.053.336.336 0 01-.19-.045c-.048-.032-.07-.085-.07-.147a.17.17 0 01.106-.164.597.597 0 01.235-.033c.066 0 .155.004.228.009v-.011c0-.095-.065-.126-.242-.126-.068 0-.152.003-.232.01v-.122a3.67 3.67 0 01.271-.012c.11 0 .223.008.293.056.072.05.086.118.086.208v.36zm.365-.863h.176v.863h-.176z" fill="#939598"/></svg>